<svg xmlns="http://www.w3.org/2000/svg" version="1.0" preserveAspectRatio="xMidYMid meet" viewBox="7.35 16 203.12 394.94">
 <g fill="#3e3e3a">
  <path d="M105 410.45 c-2 -0.75 -3 -2.90 -3 -6.60 0 -2.80 0.20 -3.50 1.30 -4.80 1.25 -1.55 1.35 -1.55 5.90 -1.55 4.25 0 4.75 0.10 6 1.25 1.20 1.10 1.30 1.55 1.30 5 0 4.45 -0.45 5.60 -2.75 6.55 -1.90 0.80 -6.80 0.85 -8.75 0.15z"/>
  <path d="M88.35 394.10 c-2.15 -0.40 -2.95 -6.10 -1.10 -8.10 0.90 -0.95 1.60 -1 22.10 -1 20.50 0 21.20 0.05 22.15 1 1.35 1.35 1.40 5.40 0.10 7.05 l-0.95 1.10 -20.70 0.05 c-11.40 0.05 -21.15 0 -21.60 -0.10z"/>
  <path d="M78.85 380 c-1.25 -1 -1.35 -1.35 -1.35 -4.95 0 -3.15 0.20 -4.05 0.90 -4.70 0.85 -0.75 3.70 -0.85 31 -0.85 33.25 0 31.25 -0.20 31.90 3.30 0.45 2.40 -0.15 6.25 -1.05 7.20 -0.70 0.65 -4.65 0.75 -30.45 0.90 -29.45 0.15 -29.65 0.10 -30.95 -0.90z"/>
  <path d="M100.75 356.05 c-7.80 -2.70 -13.20 -6.05 -18.25 -11.40 -1.80 -1.85 -3.55 -3.95 -3.95 -4.60 -0.35 -0.65 -1.05 -1.95 -1.60 -2.85 -0.50 -0.90 -1.40 -3.30 -2.05 -5.30 -1.60 -5.10 -1.65 -17.25 -0.05 -22.90 2.80 -10.10 10.55 -18.50 24.55 -26.60 2.40 -1.40 5.35 -3.10 6.60 -3.80 11.05 -6.15 15.90 -9.45 20.05 -13.55 5.75 -5.80 7.30 -11 5.80 -19.70 -0.75 -4.55 -4.85 -17.80 -5.85 -19.10 -0.20 -0.25 -1.45 -2.50 -2.75 -5 -1.30 -2.45 -3.90 -6.85 -5.85 -9.75 -7.70 -11.40 -11.35 -17.05 -15.40 -23.50 -6.15 -10 -6.90 -11.20 -7.50 -11.85 -0.60 -0.70 -2.20 -0.20 -7.55 2.25 -1.80 0.85 -4.25 1.80 -5.50 2.05 -2.20 0.50 -5.45 0.75 -5.45 0.35 0 -1.25 3.30 -6.55 5.70 -9.05 0.50 -0.55 1.95 -2.35 3.15 -4 2.60 -3.45 2.60 -2.80 0.30 -14 -0.85 -4.10 -2.05 -9.95 -2.65 -13 -2.60 -13.30 -5.50 -22.90 -7.90 -26.45 -3.05 -4.50 -10.35 -10.20 -14.75 -11.55 -5.65 -1.70 -10.20 -1.40 -21.10 1.35 -4.25 1.10 -4.50 1.20 -4.35 2.40 0.10 0.70 0.40 1.45 0.65 1.75 0.25 0.25 0.45 0.75 0.45 1.10 0 0.35 0.55 1.80 1.20 3.25 0.70 1.50 1.70 3.90 2.30 5.40 0.60 1.50 1.60 3.75 2.25 5 0.60 1.25 1.70 3.70 2.40 5.50 0.75 1.80 1.60 3.95 1.90 4.75 2.25 5.55 3.85 14.75 3.20 18.20 l-0.35 1.80 -2.20 -2.50 c-1.20 -1.35 -2.20 -2.65 -2.20 -2.85 0 -0.20 -0.50 -0.90 -1.10 -1.60 -1.65 -1.75 -2.45 -2.75 -4.10 -5 -0.80 -1.10 -1.85 -2.45 -2.35 -3 -0.50 -0.55 -1.55 -1.90 -2.30 -3 -0.80 -1.10 -1.75 -2.40 -2.15 -2.80 -0.90 -1 -2.35 -2.80 -7 -8.75 -5.30 -6.80 -6.75 -8.60 -10.40 -13.25 -5.05 -6.40 -7.35 -9.55 -7.25 -9.85 0.20 -0.60 11.15 -6.85 16.90 -9.70 9.70 -4.70 15.60 -6.25 26.10 -6.75 7 -0.35 14 0.25 17.90 1.55 5.40 1.80 11.60 5.65 13.90 8.60 0.60 0.75 1.35 1.55 1.65 1.75 0.30 0.20 0.75 0.95 0.90 1.65 0.20 0.70 0.55 1.25 0.80 1.25 0.85 0 3.95 7.85 5.55 14 1.20 4.55 3.70 17.25 4.45 22.75 0.80 5.60 2.95 16.50 3.80 19.50 2 6.85 2.50 8.30 4.15 11.75 0.95 2.05 2 4 2.35 4.25 0.30 0.30 1 1.45 1.50 2.65 0.50 1.15 1.05 2.10 1.30 2.10 0.20 0 0.70 0.80 1.10 1.75 0.40 0.95 1 1.75 1.25 1.75 0.30 0 0.55 0.35 0.55 0.75 0 0.40 0.45 1.20 0.95 1.70 0.50 0.50 1.10 1.40 1.25 1.95 0.20 0.55 0.65 1.15 1.05 1.30 0.40 0.15 0.75 0.50 0.75 0.80 0 0.55 0.45 1.20 2.15 3.05 0.45 0.50 0.85 1.10 0.85 1.35 0 0.20 0.70 1.10 1.50 2 0.85 0.90 1.50 1.85 1.50 2.05 0 0.20 0.70 1 1.50 1.80 0.85 0.80 1.50 1.65 1.50 1.85 0 0.55 0.90 1.65 2.60 3.30 0.80 0.75 1.40 1.55 1.40 1.85 0 0.30 0.65 1.45 1.50 2.55 0.80 1.05 1.50 2.25 1.50 2.60 0 0.30 0.40 1 0.90 1.50 2.70 2.70 7.55 15.45 8.90 23.35 1.20 7.10 1.20 21.25 -0.05 26 -2.50 9.85 -7.75 15.45 -24.10 25.95 -7.55 4.85 -16.25 11.40 -20.70 15.65 -8.20 7.80 -11.25 14.95 -9.65 22.60 0.75 3.55 2.90 9.30 3.90 10.55 0.35 0.40 1 1.60 1.50 2.60 0.45 1 1.05 2 1.30 2.15 0.30 0.20 0.85 1.10 1.25 2.05 0.40 0.95 0.95 1.70 1.20 1.70 0.30 0 0.55 0.25 0.55 0.50 0 0.55 0.50 1.20 2.15 3.05 0.45 0.50 0.85 1.10 0.85 1.35 0 0.20 0.60 1.05 1.40 1.90 0.75 0.80 1.65 2.05 2 2.70 0.35 0.70 1 1.90 1.40 2.65 1.45 2.65 0.85 2.90 -3.55 1.40z"/>
  <path d="M102.75 341.10 c-4.40 -2.05 -7.40 -6.95 -9 -14.60 -0.85 -4.15 -0.85 -7 0.05 -10.60 2.25 -9 8.50 -15.40 28.60 -29.25 11.05 -7.60 19.25 -14.80 23.80 -20.90 1.55 -2 2.80 -3.85 2.80 -4 0 -0.20 0.45 -1 1 -1.75 2.70 -3.75 4.35 -13.75 3.50 -20.75 -0.95 -7.60 -4.95 -17.05 -11.40 -26.70 -1.55 -2.35 -3.05 -4.65 -3.35 -5.15 -0.25 -0.45 -3.45 -5.15 -7.05 -10.50 -3.60 -5.30 -6.85 -10.25 -7.25 -10.95 -5.90 -10.90 -8.10 -17 -9.30 -25.90 -0.70 -5.50 -0.65 -14.60 0.10 -19.55 1.95 -12.15 4.15 -19.25 8.80 -28.75 6.25 -12.80 12 -19.55 20.20 -23.60 9.60 -4.75 22 -5.35 32.95 -1.60 10.65 3.65 22.30 10.45 28.60 16.70 4.25 4.25 4.90 5.45 4.60 8.50 -0.30 2.60 -0.20 2.45 -6.90 7 -12.25 8.30 -23 20.45 -33.25 37.80 -5.30 8.95 -8.70 13.45 -10.10 13.45 -2.15 0 -3.35 -9.85 -1.90 -15.40 0.90 -3.40 3.50 -9.15 5.30 -11.65 0.50 -0.75 0.95 -1.50 0.95 -1.65 0 -0.85 10.10 -13.55 19.35 -24.35 2.30 -2.65 4.15 -5.05 4.10 -5.25 0 -0.25 -1.35 -1.55 -3 -2.95 -8.95 -7.45 -14.85 -10.15 -20.95 -9.55 -4.25 0.45 -9.50 2.15 -13.90 4.60 -3.95 2.15 -10.45 6.95 -11.10 8.20 -0.25 0.50 -0.80 1.20 -1.15 1.60 -0.90 0.90 -3.45 5.30 -4.15 7.15 -2.25 5.75 -2.75 7.30 -3.65 10.90 -1.80 7.40 -2.80 18.50 -2.20 24.25 0.30 2.90 0 2.65 7.85 7.65 4.65 2.95 9.30 7.25 9.30 8.50 0 0.65 -0.75 1.10 -2.70 1.65 -1.50 0.45 -3.25 0.80 -3.90 0.80 -0.65 0 -1.60 0.30 -2.10 0.65 -0.80 0.60 -0.80 0.75 -0.10 2.10 0.45 0.85 0.80 1.70 0.80 1.95 0 0.25 0.50 1.15 1.15 2 0.60 0.85 1.40 2.15 1.75 2.95 0.30 0.75 0.80 1.35 1.10 1.35 0.25 0 0.50 0.30 0.50 0.65 0 0.60 2.75 4.75 3.55 5.35 0.15 0.15 0.45 0.75 0.65 1.40 0.20 0.60 0.60 1.10 0.85 1.10 0.30 0 0.75 0.70 1 1.50 0.30 0.85 0.75 1.50 1 1.50 0.25 0 0.75 0.80 1.15 1.75 0.40 0.95 1 1.75 1.25 1.75 0.30 0 0.55 0.30 0.55 0.70 0 0.35 0.35 0.95 0.80 1.30 0.40 0.40 1.05 1.40 1.45 2.35 0.40 0.90 0.90 1.65 1.15 1.65 0.30 0 0.60 0.55 0.80 1.15 0.15 0.65 0.80 1.85 1.40 2.60 1.45 1.85 6.40 11.70 6.40 12.75 0 0.45 0.20 1 0.50 1.30 0.25 0.25 1.10 2.70 1.85 5.45 1.25 4.50 1.40 5.80 1.40 12.75 0 8 -0.50 11.25 -2.30 15 -0.50 1.05 -0.95 2.15 -0.95 2.45 0 1.10 -6.90 11.40 -10.75 16.05 -7.05 8.45 -14.95 15.10 -25.80 21.60 -14.05 8.50 -19.60 13.05 -22.20 18.30 -0.75 1.50 -1.25 2.75 -1.15 2.90 0.10 0.10 1 -0.05 1.95 -0.30 4.05 -1.20 10 0.25 10.70 2.55 0.20 0.50 0.50 0.95 0.70 0.95 0.90 0 2.20 4.80 2.20 7.95 0 4.80 -1.85 7.95 -6.05 10.40 -2.95 1.75 -8 2.10 -10.85 0.75z"/>
  <path d="M106.80 107.50 c-1.70 -2.05 -2.05 -4.15 -1.95 -11.25 0.05 -6.80 0.75 -9.40 2.80 -10.95 1.30 -0.95 1.50 -0.95 2.70 -0.30 0.75 0.45 1.80 1.55 2.35 2.50 0.95 1.55 1.05 2.60 1.05 9.25 0 6.80 -0.10 7.70 -1.10 9.55 -1.70 3.20 -3.80 3.60 -5.85 1.20z"/>
  <path d="M62.75 75.25 c-1.10 -1.05 -1.25 -1.65 -1.25 -4.75 0 -6.10 -5.30 -5.50 47.75 -5.50 53.15 0 47.75 -0.65 47.75 5.70 0 6.40 5.05 5.80 -47.85 5.80 l-45.20 0 -1.20 -1.25z"/>
  <path d="M79.25 59.90 c-1.55 -0.90 -1.75 -1.40 -1.75 -5.50 0 -3.40 0.15 -3.95 1.10 -4.60 1 -0.70 4.75 -0.80 30.95 -0.80 33.90 0 31.20 -0.35 31.80 4.35 0.35 3.25 -0.55 6.05 -2.20 6.70 -1.85 0.70 -58.65 0.55 -59.90 -0.15z"/>
  <path d="M87.20 42.45 c-0.70 -0.80 -0.95 -1.80 -0.95 -3.95 0.05 -4.85 -1.65 -4.50 23 -4.50 24.85 0 23.25 -0.30 23.25 4.65 0 2.20 -0.25 3.10 -1 3.85 -0.95 0.95 -1.65 1 -22.15 1 -20.90 0 -21.20 0 -22.15 -1.05z"/>
  <path d="M104.25 28.55 c-1.80 -1.05 -2.45 -3.25 -2.10 -7.30 0.25 -2.40 0.55 -3.20 1.60 -4.10 1.15 -1 1.85 -1.15 5.65 -1.15 4 0 4.40 0.10 5.70 1.35 1.30 1.25 1.40 1.65 1.40 5 0 4.25 -0.75 5.80 -3.10 6.60 -2.35 0.85 -7.40 0.60 -9.15 -0.40z"/>
 </g>
</svg>