<svg version="1.0" xmlns="http://www.w3.org/2000/svg" preserveAspectRatio="xMidYMid meet" viewBox="33.23 40.99 403.44 209.01">  <g fill="#000000" fill-rule="evenodd">   <path d="M342.65 249.35 C342.90 248.40 344.50 248.25 344.50 249.20 C344.50 249.65 344.05 250 343.50 250 C342.90 250 342.55 249.70 342.65 249.35 "/>   <path d="M327.75 245.05 C327.60 244.80 327.80 244.20 328.20 243.65 C328.75 242.95 329.05 242.85 329.50 243.30 C329.85 243.65 329.95 244.25 329.80 244.70 C329.45 245.55 328.15 245.75 327.75 245.05 "/>   <path d="M316.55 243.55 C306.05 241.55 295.40 237.10 287.25 231.25 C280.75 226.55 272.85 220.20 268 215.65 C265.65 213.45 261.45 209.90 258.60 207.75 C254.60 204.70 253.25 203.90 252.35 204.15 C250.90 204.50 248.80 203.20 247.30 200.90 C245.65 198.45 245.35 197.50 246.25 197.15 C247.90 196.50 253.50 200.15 253.50 201.85 C253.50 202.65 255.65 204.80 258.15 206.60 L259.75 207.70 257.95 205.45 C254 200.60 251.50 197 248.75 192.40 C246.50 188.55 245.55 187.45 244.30 187 C243.45 186.70 241.85 185.85 240.75 185.10 C237.10 182.75 229.50 179 228.25 179 C227.45 179 226.55 178.40 225.70 177.25 C224.35 175.50 224.35 174 225.65 174 C226.70 174 229 175.95 229.50 177.25 C229.75 177.90 230.90 178.95 232.10 179.55 C234.10 180.55 234 180.40 229.75 175.90 C226.55 172.55 224.95 171.25 224.25 171.35 C221.50 171.75 220.45 170.55 219.75 166.35 C219.45 164.55 219.50 164.50 220.80 164.50 C222 164.50 225.20 166.40 226.10 167.70 C226.30 168 226.45 168.95 226.45 169.80 C226.45 171 227.20 172.10 229.75 174.90 C231.55 176.85 233.95 179.15 235.05 180.05 L237.10 181.65 236 179.55 C235.45 178.40 234.80 177.50 234.55 177.50 C234.35 177.50 233.65 177 233.05 176.45 C231.90 175.35 231.55 172.40 232.45 171 C232.85 170.35 233.05 170.40 233.95 171.20 C234.55 171.75 235.45 172.90 236 173.75 C236.85 175.10 236.90 175.60 236.40 176.65 C235.35 179 238.70 183.30 243.40 185.70 C244.35 186.20 245 186.35 244.90 186.15 C242.35 180.40 231.05 158.50 230.60 158.50 C230.25 158.50 229.65 157.95 229.20 157.25 C228.40 156.05 225.25 154.50 223.60 154.45 C223.10 154.45 222.05 154.10 221.25 153.70 C219.95 153 219.30 153 216.65 153.55 C214.20 154 213.10 154 211.55 153.55 C209.20 152.85 204.45 148.60 204.50 147.20 C204.50 146.65 205.05 145.35 205.70 144.25 C207.25 141.70 207.25 141.55 205.75 141 C203.70 140.20 204.20 139.15 207.35 137.55 C209.80 136.30 210.10 135 208.20 133.75 C207.15 133.05 207 132.75 207.50 132.20 C207.85 131.80 208.30 131.50 208.60 131.50 C208.85 131.50 210.45 130.55 212.15 129.45 C213.85 128.30 215.55 127.50 216.05 127.65 C216.55 127.75 217.30 127.45 217.75 126.95 C218.20 126.50 219.35 125.90 220.40 125.75 C221.40 125.55 222.80 125.05 223.50 124.60 C224.15 124.10 225.95 123.70 227.55 123.65 C230.70 123.50 231.30 124.05 230.45 126.30 C229.75 128.10 230.20 129 231.65 129 C235.15 129 236.65 134.60 234.75 140.55 C234.25 142 233.65 144 233.35 145 C233.05 145.95 232.65 149.30 232.45 152.50 L232.15 158.25 236.10 166.70 C240.90 176.85 247.80 189.70 251.60 195.55 C254.75 200.35 261.90 209.20 262.35 208.80 C262.50 208.60 262.40 208.20 262.10 207.85 C261.80 207.50 260.95 205.70 260.20 203.85 C259.20 201.30 258.50 200.25 257.40 199.65 C255.70 198.80 254 195.55 254 193.10 C253.95 190.80 254.90 191.05 257.65 193.95 C259.80 196.25 259.95 196.60 259.70 198.35 C259.45 199.85 259.75 201.05 261 204 C263.60 209.85 264.85 211.45 269.45 214.60 C271.75 216.15 273.70 217.40 273.80 217.30 C273.90 217.20 272.65 215.15 271.05 212.70 C269.45 210.25 265.95 204.30 263.25 199.50 C256.70 187.75 256.20 187 254.40 187 C253.50 187 252.30 186.35 251.10 185.30 C250.05 184.35 248.30 183.05 247.10 182.30 C244.25 180.50 243.35 178.70 244.10 176.30 C244.60 174.65 244.55 174.35 243.50 173.25 C241.90 171.55 242.30 170.30 244.75 169.85 C249.10 169.10 249.95 168.85 250.50 168.15 C250.85 167.80 251.50 167.50 251.95 167.50 C252.45 167.50 253.40 167.05 254.10 166.50 C255.65 165.25 256.55 165.20 258.60 166.35 C259.50 166.80 260.70 167.20 261.25 167.25 C263.90 167.40 264.40 167.60 265.80 168.95 C268.70 171.80 268.35 175.45 264.75 179.35 C257.40 187.25 257.40 187.50 262.80 197.30 C264.90 201.10 266.80 204.45 267.05 204.70 C267.30 204.95 267.45 204.10 267.45 202.70 C267.45 200.50 267.30 200.15 266 199.40 C263.85 198.15 263.55 196.35 264.95 192.75 C265.60 191.10 266.60 188.40 267.20 186.75 C267.85 185.10 268.55 183.70 268.85 183.60 C269.65 183.35 272.60 188.30 273.30 191.10 C274.40 195.30 272.50 200 269.65 200 C268.05 200 267.90 200.50 268.30 204.25 C268.60 207.20 268.95 208.10 271.60 212.15 C281.10 226.60 291.75 235.25 305.95 240.05 C310.30 241.50 319.45 243.50 321.95 243.50 C322.75 243.50 323.55 243.70 323.70 244 C324.10 244.70 322.10 244.60 316.55 243.55 M277.30 222.85 C271.20 217.60 268.15 214.75 269.75 215.75 C270.55 216.25 272.15 217.20 273.30 217.85 C275 218.80 282 226 281.25 226 C281.10 226 279.35 224.55 277.30 222.85 M249.50 203 L247.95 200.60C247.10 199.30 246.65 198.15 246.90 198.10 C247.20 198 248.15 198.30 249.05 198.75 C250 199.20 251.10 199.95 251.60 200.35 C252.10 200.80 252.50 201.35 252.50 201.65 C252.50 201.95 252.25 201.95 251.90 201.60 C251.55 201.25 251.05 201 250.80 201 C250.55 201 250.70 201.40 251.15 201.90 C251.60 202.40 252 203 252 203.20 C252 203.40 251.40 203.45 250.75 203.30 L249.50 203M268.25 198.85 C268.10 198.50 267.95 197.45 267.80 196.50 C267.65 194.85 267.65 194.85 267.55 196.85 C267.50 198.35 267.25 199 266.75 199 C265.85 199 265 197.45 264.95 195.90 C264.95 194.50 268.55 185 269.10 185 C269.75 184.95 271.95 188.90 272.55 191.10 C272.90 192.35 272.95 194.10 272.75 195.20 C272.20 198.10 268.95 200.75 268.25 198.85 M256.55 197.95 C255.55 196.85 254.30 192.95 254.80 192.50 C254.95 192.35 255.95 193.20 257 194.35 C258.90 196.35 259.55 198 258.50 198 C258.20 198 258 197.65 258 197.25 C258 196.80 257.75 196.50 257.50 196.50 C257.20 196.50 257 196.60 257 196.75 C257 196.90 257.20 197.50 257.50 198 C258.15 199.25 257.70 199.25 256.55 197.95 M253.50 183.20 C252.30 182.15 252 181.50 252 179.95 C252 177.10 253.75 172.90 255.95 170.35 C257.70 168.35 258.15 168.15 260.15 168.10 C262.65 168.05 263.20 168.45 263.70 170.80 C264.30 173.65 263.05 176.85 259.90 180.40 C258.30 182.20 257 183.85 257 184.10 C257 184.95 254.90 184.40 253.50 183.20 M246.75 181.25 C244.80 179.80 244.30 178.65 244.75 176.75 L245.10 175.40 246.55 176.80 C247.90 178.05 249.30 181.65 248.75 182.25 C248.60 182.35 247.70 181.90 246.75 181.25 M248.30 177.85 C247.05 176.15 245.50 174.20 244.80 173.50 C244.05 172.85 243.50 171.85 243.50 171.35 C243.50 170.55 243.70 170.45 244.80 170.70 C245.60 170.90 246.50 170.75 247.30 170.25 C248.40 169.50 248.65 169.55 250.45 170.45 C251.55 171 252.80 171.50 253.20 171.50 C253.90 171.50 253.85 171.75 253 173.50 C252.45 174.60 251.65 176.70 251.25 178.25 L250.50 181 248.30 177.85 M266.50 170 L266.80 172.20C267.05 174.05 266.90 174.80 265.75 176.75 C265 178 264.30 178.95 264.15 178.85 C264.05 178.70 264.20 178 264.45 177.25 C264.75 176.50 264.85 174.70 264.70 173.30 C264.55 171.90 264.30 170.20 264.20 169.60 C263.95 168.45 264 168.45 265.20 169.20 L266.50 170M227 178.50 L227 178.25C227 178.10 226.85 178 226.75 178 L226.50 178L226.50 178 L225.95 176.65C225.65 175.95 225.55 175.25 225.70 175.10 C225.80 174.95 226.30 175 226.75 175.15 C227.20 175.35 227.45 175.85 227.40 176.35 C227.30 176.85 227.45 177.50 227.65 177.85 C227.85 178.20 227.80 178.50 227.50 178.50 L227 178.50M233.50 176.20 C233.20 176 233 174.95 233 173.80 L233 171.75 234.50 173.35 C236 175.05 236.35 176 235.50 176 C235.20 176 235 175.75 235 175.50 C235 175.20 234.75 175 234.50 175 C234.20 175 234.10 175.30 234.25 175.75 C234.50 176.55 234.30 176.65 233.50 176.20 M222.25 170.70 C221.20 170.30 219.85 165 220.75 165 C222.05 165 226 168.25 226 169.30 C226 170.30 225.50 170.10 224.35 168.70 C223.10 167.10 222.60 167.45 223.70 169.20 C224.40 170.30 224.40 170.50 223.75 170.75 C223.30 170.85 222.65 170.85 222.25 170.70 M250.85 169.95 C250.35 169.55 250.45 169.30 251.20 168.70 C251.75 168.30 252.55 168 253 168 C253.45 168 254.15 167.65 254.50 167.25 C255 166.60 258 166.10 258 166.70 C258 166.80 257.30 167.70 256.50 168.70 C255.30 170.10 254.60 170.50 253.25 170.50 C252.25 170.50 251.20 170.25 250.85 169.95 M209.60 151.65 C205 148.50 204.60 147.35 206.80 143.65 L208.10 141.40 210.05 143.30 C211.75 144.95 217 152.05 217 152.70 C217 152.85 215.75 153 214.25 153 C212.10 153 211.05 152.70 209.60 151.65 M217.30 151.60 C216.95 151.10 215.45 149 214.05 146.90 C211.30 142.90 208.45 140.50 206.55 140.50 C204.85 140.50 205.45 139.40 207.90 138.05 C209.15 137.35 210.10 136.40 210.30 135.65 C210.65 134.15 212.55 133.15 215.90 132.70 C217.35 132.50 218.65 132.10 218.80 131.85 C219 131.50 218.70 131.45 218 131.60 C217 131.85 216.95 131.75 217.25 130.30 C217.80 127.75 218.35 127.05 220.35 126.50 C222.50 125.90 222.90 126.15 221.85 127.35 C218.45 131.25 217.70 140.30 220.55 143.30 C221.15 143.95 221.50 144.60 221.35 144.75 C220.85 145.25 216.70 141.65 215.75 139.85 C215.20 138.80 214.45 138 214.10 138 C212.95 137.95 213.45 140.15 215.20 142.70 C216.85 145.05 219 150.25 219 151.80 C219 152.75 218.10 152.65 217.30 151.60 M223.45 145.40 C220.35 143.05 219.30 140.55 219.60 136.25 C219.80 132.70 220.95 129.85 223.55 126.05 C224.60 124.60 225.05 124.40 227.35 124.25 C230.35 124.10 230.45 124.25 229.15 127.90 C228.35 130.20 228.35 130.25 229.70 133.50 C231.25 137 232.05 142.40 230.85 140.95 C230.05 139.90 228.30 139 227.20 139 C226.50 139 226.40 139.35 226.70 141.65 C227.05 144.60 226.75 147 226 147 C225.70 147 224.55 146.25 223.45 145.40 M232.30 140.80 C232.50 139.10 232.30 137.95 231.20 135.45 C230.45 133.65 229.75 131.50 229.60 130.65 L229.40 129.05 231.25 129.50 C233.70 130.05 234.80 131.85 234.90 135.50 C235 137.95 234.15 140.80 233 142 C232 143 232 143 232.30 140.80 M212.50 129.50 L213.75 129C214.45 128.70 215.35 128.50 215.80 128.50 C216.35 128.50 216.50 128.90 216.40 130.05 C216.25 131.45 216 131.70 213.90 132.20 C212.60 132.55 211.20 133.05 210.80 133.40 C210.40 133.75 209.75 133.85 209.30 133.70 C208.85 133.50 208.50 133.15 208.50 132.95 C208.50 132.70 209.10 132.15 209.90 131.75 C210.65 131.35 211.55 130.70 211.90 130.25 L212.50 129.50"/>   <path d="M350.15 243.35 C350.40 242.40 352 242.25 352 243.20 C352 243.65 351.55 244 351 244 C350.40 244 350.05 243.70 350.15 243.35 "/>   <path d="M357.75 242.15 C357.15 241.35 357.55 240.40 358.35 240.55 C358.85 240.65 359.15 241 359.10 241.35 C358.95 242.10 358.05 242.60 357.75 242.15 "/>   <path d="M337.75 241.05 C337.30 240.30 338.95 239.25 339.55 239.85 C339.85 240.15 339.95 240.65 339.80 240.95 C339.40 241.60 338.05 241.65 337.75 241.05 "/>   <path d="M321.25 236.70 C321.10 236.30 321.35 235.80 321.75 235.65 C322.70 235.30 323.70 236.15 323.30 236.95 C322.85 237.75 321.50 237.60 321.25 236.70 "/>   <path d="M109.50 236.25 C109.50 235.80 109.90 235.50 110.50 235.50 C111.65 235.50 111.45 236.30 110.25 236.75 C109.80 236.85 109.50 236.65 109.50 236.25 "/>   <path d="M384.75 233.65 C384.35 233.15 384.95 232.50 385.75 232.50 C386.15 232.50 386.50 232.80 386.50 233.25 C386.50 233.95 385.20 234.30 384.75 233.65 "/>   <path d="M312.35 233 C311.85 232.60 311.85 232.40 312.35 231.90 C312.85 231.40 313.10 231.40 313.50 231.90 C314.15 232.70 313.20 233.65 312.35 233 "/>   <path d="M365 232.65 C365 232 365.10 231.95 365.75 232.50 C366.15 232.80 366.50 233.20 366.50 233.30 C366.50 233.40 366.15 233.50 365.75 233.50 C365.30 233.50 365 233.10 365 232.65 "/>   <path d="M376 232.70 C376 232.20 376.30 231.95 376.80 232.05 C378 232.30 378.15 233.50 377 233.50 C376.40 233.50 376 233.15 376 232.70 "/>   <path d="M118.25 232.15 C117.70 231.45 118 231 119 231 C119.55 231 120 231.30 120 231.75 C120 232.45 118.70 232.80 118.25 232.15 "/>   <path d="M125.65 231.95 C125.25 231.20 126.25 230.25 126.95 230.70 C127.25 230.90 127.50 231.35 127.50 231.75 C127.50 232.60 126.10 232.75 125.65 231.95 "/>   <path d="M154.15 229.95 C154 229.65 154.05 229.20 154.30 228.95 C154.90 228.35 156.20 229.20 155.80 229.90 C155.40 230.65 154.55 230.65 154.15 229.95 "/>   <path d="M324.65 229.70 C324.25 228.70 324.85 228.10 325.50 228.90 C325.80 229.25 325.80 229.65 325.50 230 C325.15 230.30 324.85 230.20 324.65 229.70 "/>   <path d="M96 228.20 C96 227.35 97.15 226.75 97.95 227.20 C98.20 227.35 98.35 227.85 98.20 228.25 C97.90 229.20 96 229.20 96 228.20 "/>   <path d="M145.75 227.65 C145.20 226.95 145.50 226.50 146.50 226.50 C147.05 226.50 147.50 226.80 147.50 227.25 C147.50 227.95 146.20 228.30 145.75 227.65 "/>   <path d="M106.65 226.95 C106.50 226.65 106.60 226.15 106.90 225.85 C107.50 225.25 109.20 225.75 108.75 226.50 C108.30 227.25 107 227.55 106.65 226.95 "/>   <path d="M135 224.75 C135 223.60 135.85 223.40 136.15 224.50 C136.40 225.15 136.25 225.50 135.75 225.50 C135.30 225.50 135 225.15 135 224.75 "/>   <path d="M387.50 223 C387.50 222.40 387.80 222 388.25 222 C388.65 222 389 222.40 389 223 C389 223.55 388.65 224 388.25 224 C387.80 224 387.50 223.55 387.50 223 "/>   <path d="M392.50 220.95 C392.50 220.20 392.75 219.95 393.35 220.05 C394.40 220.25 394.30 221.35 393.25 221.75 C392.70 221.90 392.50 221.65 392.50 220.95 "/>   <path d="M159 220 C159 219.40 159.30 219 159.75 219 C160.15 219 160.50 219.40 160.50 220 C160.50 220.55 160.15 221 159.75 221 C159.30 221 159 220.55 159 220 "/>   <path d="M164.20 220 C163.95 219.50 164.45 217.95 164.90 218 C165.10 218 165.55 218.20 165.95 218.45 C166.50 218.80 166.55 219.05 166.05 219.70 C165.40 220.55 164.60 220.70 164.20 220 "/>   <path d="M91.65 219.20 C91.50 218.80 91.50 218.30 91.65 218.15 C92.15 217.65 93.50 218.40 93.50 219.20 C93.50 220.20 92.05 220.20 91.65 219.20 "/>   <path d="M86.25 218.75 C86 217.90 86.75 217.25 87.50 217.75 C88.25 218.20 88.05 219.50 87.25 219.50 C86.80 219.50 86.35 219.15 86.25 218.75 "/>   <path d="M396.50 219.25 C396.50 219.10 397.75 217.60 399.30 215.85 C405.95 208.45 413.80 196.95 416.45 190.75 L417.50 188.35 416.10 186.20 C415.35 185 414.30 183.90 413.75 183.75 C412 183.30 409.10 180.55 408 178.30 C406.90 176 406.60 171.15 407.45 169.50 C408.30 167.95 410.55 168.90 411.65 171.25 C412.15 172.35 413.55 174.25 414.75 175.50 C415.95 176.70 417.25 178.55 417.70 179.55 C418.35 181.15 418.35 181.70 417.75 183.75 C416.85 186.65 417.50 188.75 418.50 186.25 C420.70 180.65 423 171.50 423 168.40 C423 167.30 422.80 167.20 421.05 167.40 C419.55 167.50 418.80 167.30 417.60 166.25 C416.75 165.50 415.90 164.50 415.70 163.95 C415.55 163.35 414.95 163 414.25 163 C412.85 163 410.95 160.85 411 159.30 C411 158.20 411.35 157.50 413.30 154.45 C414.10 153.25 414.30 152.55 413.95 151.90 C413.70 151.45 413.50 149.80 413.50 148.30 C413.50 145.40 413.80 145 416.40 144.95 C419.05 144.95 419.20 144.30 417 141.75 C415.85 140.45 414.35 138.20 413.65 136.80 C412.95 135.40 411.65 133.65 410.85 132.95 C409.30 131.65 409.30 130.50 410.80 130.50 C411.40 130.50 411.50 130.15 411.25 129.25 C410.85 127.60 411.65 127.65 412.95 129.30 C414.10 130.80 414.20 131.60 413.40 132.90 C412.95 133.65 413.10 134.30 414.20 136.35 C415 137.75 416.25 139.65 417.05 140.55 C418.40 142.15 418.45 142.15 418.20 141 C418.05 140.30 417.50 137.05 417 133.80 C416.40 129.70 415.85 127.70 415.35 127.40 C414.90 127.15 413.45 126.10 412.05 125 C410.65 123.90 409.25 122.95 409 122.95 C408.70 123 408.50 122.80 408.50 122.60 C408.50 122.35 407.60 121.05 406.55 119.65 C403.90 116.10 402.55 113.10 401.70 108.60 C400.70 103.20 400.70 103 402.45 103 C404.45 103 404.75 103.70 403.50 105.75 C402.95 106.75 402.50 108.15 402.50 108.90 C402.50 111.65 406.95 120.35 408 119.70 C408.25 119.55 408.30 117.95 408.10 116.10 C407.85 113.40 407.60 112.55 406.65 111.80 C406 111.30 405.50 110.40 405.50 109.80 C405.50 108.85 405.75 108.70 407.70 108.70 C409.80 108.70 409.95 108.80 409.95 110 C409.95 110.70 409.75 111.50 409.45 111.80 C409.15 112.10 409 113.80 409.10 115.75 C409.20 118.45 409.40 119.20 409.95 119.05 C410.95 118.85 411.50 120 411.20 121.75 C410.95 123.05 411.20 123.40 413.45 125.10 L416 127 415.65 122.95 C415.35 119.45 415.10 118.50 413.65 116.35 C412.75 115 412 113.45 412 112.95 C412 112.45 411.75 111.90 411.50 111.75 C410.70 111.25 410.90 108.95 411.75 108.65 C412.20 108.45 412.90 108.70 413.30 109.10 C413.95 109.75 413.95 110.05 413.40 111.05 C412.65 112.45 412.80 113.80 413.90 115.50 C414.70 116.70 414.75 116.60 415 112 C415.20 108.50 415.10 107 414.60 106.45 C414.25 106 414 104.95 414 104.15 C414 102.75 414.10 102.65 415.70 102.70 C417.30 102.70 417.45 102.85 417.45 104.20 C417.45 105 417.15 106 416.75 106.45 C416.35 106.90 415.85 108.60 415.70 110.25 L415.40 113.25 416.70 111.75 C417.55 110.75 417.95 109.65 417.95 108.45 C418 106.15 418.65 105.45 420.25 106.15 C421.85 106.90 421.80 107.10 419.80 109.10 C417.50 111.45 415.40 115.15 415.80 116.20 C416 116.80 416.20 116.90 416.50 116.45 C416.75 116.05 417.10 116.05 417.90 116.55 C418.60 117 419.15 117.05 419.35 116.75 C419.55 116.45 420.15 116.25 420.70 116.25 C421.45 116.25 421.75 115.85 421.80 114.75 C421.90 113.95 422.20 112.65 422.55 111.85 L423.10 110.40 424.60 112.05 L426.10 113.70 424.90 114.45 C424.25 114.85 422.35 116.55 420.65 118.20 C417.80 121 417.55 121.40 417.20 124.10 C417 125.70 417.05 128.50 417.30 130.35 C417.70 133.50 417.80 133.65 418.40 132.55 C418.80 131.90 419.20 128.95 419.35 125.65 C419.50 122.50 419.80 119.85 420 119.70 C420.55 119.40 423.10 120.55 423.75 121.40 C424.20 122 424.40 121.95 424.70 121.15 C424.90 120.65 425.15 119.45 425.25 118.55 C425.40 116.95 427 114.50 427 115.85 C427 116.20 427.30 116.50 427.75 116.50 C428.85 116.50 428.65 117.10 427 119.20 C426.10 120.35 425.50 121.70 425.50 122.55 C425.50 123.65 425.10 124.25 423.80 125 C421.55 126.35 417.65 134.70 418.35 136.80 C418.75 138.10 418.85 138 420.90 134.10 C422.05 131.90 423 129.40 423 128.55 C423 126.95 423.65 126.10 424.20 126.95 C424.40 127.25 424.95 127.50 425.50 127.50 C427 127.50 426.65 128.90 425 129.85 C424.15 130.35 423.50 130.85 423.50 131 C423.50 131.15 422.45 133.05 421.25 135.20 C419.80 137.65 419 139.75 419 140.80 C419 142.55 419.80 143.50 420.25 142.30 C420.40 141.90 420.90 141.45 421.30 141.25 C422.50 140.80 426.45 142.95 427.25 144.55 C427.85 145.70 428.35 146 429.75 146 C432.25 146 434 147.80 434 150.45 C434 152.10 434.15 152.50 434.90 152.50 C436.55 152.50 436.95 153.55 436.50 156.70 C436.25 158.85 435.85 159.85 435 160.45 C434.05 161.20 433.90 161.65 434.15 163.05 C434.60 165.40 433.85 166.20 430.10 167.45 C426.35 168.70 426.05 168.70 424.90 167.65 C423.90 166.75 424 166.45 423 173 C422.20 178.40 418.85 187.90 415.70 193.85 C411.65 201.55 407.75 207.15 399.85 216.60 C397.80 219.05 396.50 220.10 396.50 219.25 M414 180.85 C412 176.70 411.15 176.35 413 180.40 C413.55 181.65 413.90 182.70 413.80 182.80 C413.20 183.40 410 180.35 408.80 177.95 C407.65 175.70 407.45 174.75 407.60 172.60 C407.70 171.15 407.95 169.85 408.15 169.65 C408.85 168.90 410.85 170.45 411.15 171.95 C411.35 173 412.45 174.50 414.15 176.15 C415.65 177.55 417 179.25 417.20 179.90 C417.65 181.30 417.20 184.35 416.50 184.75 C416.20 184.85 415.10 183.10 414 180.85 M424.75 166.30 C423.40 164.20 423.35 162.40 424.60 159.60 L425.75 156.95 428.85 158.50 C432 160.05 433.50 161.80 433.50 163.90 C433.50 165.10 432.80 165.65 429.85 166.65 C426.65 167.75 425.60 167.70 424.75 166.30 M418.90 166.35 C418.30 166 417.35 165.10 416.85 164.40 L415.85 163.05 418.30 160.50 C421.35 157.25 422.20 156.80 423.50 157.50 C424.40 158 424.45 158.10 423.75 159.45 C423.30 160.25 423 161.95 423 163.15 C423 166.50 421.35 167.80 418.90 166.35 M412.50 161.40 C411.50 160.20 411.95 157.65 413.50 155.65 C414.35 154.60 415.20 153.75 415.40 153.75 C415.60 153.75 417.10 154.25 418.80 154.90 L421.85 156.05 418.65 159 C415.45 162 413.60 162.70 412.50 161.40 M432.40 159.70 C432.10 159.30 430.40 158.30 428.65 157.45 C426.90 156.60 425.50 155.75 425.50 155.50 C425.50 154.30 432.75 152.50 434.90 153.20 C435.80 153.50 435.90 153.90 435.80 156.30 C435.60 159.90 433.85 161.65 432.40 159.70 M418.60 154.20 C415.70 153.05 414.95 152.25 414.40 149.95 C413.65 146.60 414.50 145.50 417.75 145.50 C418.70 145.50 418.80 145.80 418.85 147.75 C418.85 149.20 419.35 150.95 420.20 152.50 C421.60 155.20 421.40 155.35 418.60 154.20 M424 154.35 C424 154 424.80 152.50 425.75 151 C426.70 149.50 427.50 148 427.50 147.60 C427.50 146.75 431.65 146.75 432.35 147.60 C432.65 147.95 433 148.90 433.20 149.75 C433.60 151.65 433 152.20 430.10 152.65 C428.95 152.85 427.10 153.45 426 154 C424.60 154.65 424 154.80 424 154.35 M421.45 153.15 C419.75 150.90 419.20 148.20 419.90 145.55 C420.70 142.65 421.45 141.80 423.05 142.25 C424.75 142.65 427 144.80 427 146 C427 147.20 426.05 149.10 424 152.25 L422.50 154.50 421.45 153.15 M420 127.35 C420.05 126.75 420.25 125.65 420.45 125 C420.80 123.90 420.90 123.85 421.15 124.60 C421.35 125.10 421.15 126.15 420.75 127 C420.05 128.30 420 128.35 420 127.35 "/>   <path d="M404.20 217 C403.75 216.15 404.55 215.25 405.05 216.05 C405.25 216.40 405.45 216.90 405.45 217.10 C405.50 217.65 404.50 217.55 404.20 217 "/>   <path d="M96.15 212.90 C96.35 211.95 97.50 211.80 97.50 212.70 C97.50 213.10 97.15 213.50 96.75 213.50 C96.30 213.50 96.05 213.20 96.15 212.90 "/>   <path d="M70 211.20 C70 210.70 70.30 210.45 70.85 210.55 C71.85 210.75 71.80 211.35 70.75 211.75 C70.25 211.90 70 211.65 70 211.20 "/>   <path d="M401.65 204.35 C401.75 204 402.20 203.65 402.70 203.55 C403.25 203.45 403.45 203.60 403.30 203.95 C402.85 204.75 401.45 205.10 401.65 204.35 "/>   <path d="M64.65 202.40 C64.50 202.10 64.65 201.70 65 201.45 C65.75 201 67.15 201.40 66.75 202.05 C66.30 202.75 65 203 64.65 202.40 "/>   <path d="M67.50 193 C67.50 191.85 68.35 191.15 69.05 191.85 C69.70 192.50 69.15 194 68.25 194 C67.80 194 67.50 193.55 67.50 193 "/>   <path d="M60.50 193.05 C60.50 192.40 61.75 191.45 62.15 191.80 C62.85 192.50 62.45 193.50 61.50 193.50 C60.95 193.50 60.50 193.30 60.50 193.05 "/>   <path d="M52.50 187.05 C52.50 186.25 52.80 185.35 53.20 185 C54 184.35 54.65 180.85 54.40 178.95 C54.25 177.80 54.15 177.85 53.10 179.65 C52.45 180.70 52 181.85 52.05 182.15 C52.15 182.45 52 183.40 51.80 184.15 C51.50 185.25 51.30 185.50 50.85 185.05 C50.55 184.75 49.85 184.50 49.40 184.50 C48.10 184.50 48.25 183.85 50 182.20 C52.30 180 54.50 176.30 54.45 174.70 C54.45 173.30 54.40 173.25 53.70 174.20 C53.10 175.05 52.85 175.10 52.50 174.50 C52.20 174.05 51.75 173.95 51.15 174.25 C50.65 174.45 49.90 174.65 49.50 174.70 C49.10 174.70 48.60 175.40 48.45 176.25 C48.25 177.05 47.85 178.40 47.50 179.25 C46.90 180.65 46.85 180.70 46.20 179.75 C45.80 179.20 45.50 178.60 45.50 178.40 C45.50 178.15 45.15 178 44.75 178 C43.40 178 43.90 177.20 46.25 175.75 C51.85 172.20 53.85 167.70 52.90 161.05 C52.35 157.50 52.30 157.40 51.65 158.60 C51.25 159.35 50.90 162.20 50.75 165.50 C50.65 168.60 50.40 171.20 50.25 171.35 C49.85 171.75 47 170.40 46.55 169.60 C46.15 168.95 45.95 169.05 45.25 170.15 C44.75 170.85 44.55 171.70 44.75 172 C44.90 172.30 44.80 173.20 44.45 174 C43.95 175.25 43.75 175.35 42.95 174.85 C41.70 174.05 41.70 173.65 43.25 171.70 C43.90 170.80 44.50 169.45 44.50 168.75 C44.50 168.05 44.95 167.10 45.50 166.60 C47.95 164.50 48.65 163.50 50.25 159.85 C52 155.85 52.50 153.20 51.35 153.60 C50.35 153.95 47 160.60 47 162.30 C46.95 164.15 46.35 164.75 45.50 163.75 C45.15 163.35 44.60 163.15 44.20 163.30 C42.95 163.80 43.40 162.80 45.25 161 C46.25 160 48.05 157.45 49.25 155.35 C51 152.15 51.35 151.10 51.10 149.70 C50.80 147.70 50.65 147.65 49.55 149.05 L48.65 150.10 46.10 149 C44.30 148.20 43.30 147.45 42.85 146.40 C42.35 145.20 41.95 145 40.35 145 C37.75 145 36 143.20 36 140.60 C36 138.95 35.80 138.60 34.55 138.15 C33.15 137.65 33.10 137.50 33.35 134.90 C33.50 133 33.95 131.85 34.80 130.95 C35.65 130.05 36 129.10 36 127.65 C36 125.45 37.10 124 38.75 123.95 C39.30 123.95 40.35 123.65 41.15 123.20 C43 122.25 43.95 122.30 45.35 123.25 C46.45 124 46.50 124 46.50 122.30 C46.50 115.05 52 100.15 58.50 89.90 C62.90 82.95 72.65 71 73.35 71.65 C73.45 71.80 72.15 73.55 70.40 75.55 C64.05 82.85 59 90.05 54.95 97.65 L52.40 102.40 53.80 104.50 C54.55 105.60 55.85 106.90 56.70 107.30 C60.75 109.35 63.10 113.15 63.20 117.75 C63.25 121.30 62.55 122.45 60.70 122.10 C59.70 121.90 59.10 121.15 58.15 119.15 C57.40 117.65 56.25 115.95 55.55 115.35 C52.05 112.40 51.40 110.35 52.55 106.40 C52.95 105 53 104.30 52.60 103.90 C51.65 102.95 48.05 114.40 47.25 121 L46.95 123.75 48.85 123.60 C51.15 123.40 53.80 124.90 54.25 126.70 C54.50 127.60 54.90 128 55.80 128 C58.95 128 60 132.15 57.60 135.05 C56.30 136.55 56.25 137 56.25 141.20 L56.25 145.75 54.25 145.85 C50.80 146.10 50.70 146.30 52.85 148.70 C53.95 149.95 55.55 152.30 56.45 154 C57.35 155.70 58.80 157.75 59.65 158.50 L61.25 159.90 59.80 160.25 C58.60 160.55 58.45 160.80 58.70 161.80 C59 162.90 58.90 162.95 58 162.50 C56.35 161.60 55.80 160.10 56.50 158.45 C57 157.20 56.95 156.70 56 154.85 C54.65 152.25 52.45 149.30 52.15 149.65 C51.90 149.85 53.05 157.95 53.75 161.55 C54 162.75 57.60 166.05 60.55 167.75 C62.05 168.60 66.95 176.40 67.70 179.15 C68.10 180.55 68.60 183.15 68.75 184.85 C69.10 187.90 69.10 187.95 67.90 187.95 C65.55 187.95 65.25 187.30 66.50 185.05 C67.35 183.50 67.55 182.55 67.35 181 C67 178.60 65.05 174.40 63.25 172.25 L62 170.75 62 174.60 C62 177.70 62.10 178.50 62.70 178.50 C63.40 178.50 65 180.85 65 181.85 C65 182.05 63.85 182.25 62.50 182.25 C60.15 182.25 60 182.15 60 180.95 C60 180.25 60.20 179.45 60.45 179.20 C61 178.65 61.15 177.15 61.05 173.85 C61 171.85 60.80 171.45 60.10 171.60 C59.40 171.70 59.20 171.35 59.20 169.75 C59.15 168 58.90 167.60 56.70 165.90 C55.35 164.90 54.20 164.10 54.10 164.15 C54.05 164.25 54.20 166.15 54.50 168.45 C54.90 171.50 55.35 173 56.20 174.15 C57.45 175.80 58.95 179.60 58.95 181.10 C59 182.35 57.55 182.75 56.60 181.80 C55.85 181.05 55.85 180.95 56.65 180.10 C57.10 179.55 57.50 178.85 57.50 178.50 C57.50 177.65 55.95 174.45 55.55 174.50 C54.95 174.50 55.25 184.20 55.90 185.70 C56.65 187.50 56.40 187.90 54.25 188.25 C52.55 188.45 52.50 188.40 52.50 187.05 M53 169.75 C53 169.05 53.20 168.50 53.50 168.50 C53.75 168.50 54 169.05 54 169.75 C54 170.40 53.75 171 53.50 171 C53.20 171 53 170.40 53 169.75 M48.70 166.25 C48.55 165.90 48.75 164.90 49.15 164.15 L49.95 162.75 49.95 164.35 C50 166.15 49.15 167.40 48.70 166.25 M45.85 148.10 C42.55 146.30 42.55 144 45.80 139.10 C47.55 136.50 47.65 136.40 48.35 137.25 C50.50 140.10 51 143.55 49.75 146.95 C48.90 149.20 48.25 149.40 45.85 148.10 M51.50 143.80 C51.50 141.70 50.65 139.15 49.30 137.30 L48.35 135.85 49.55 136.25 C50.20 136.45 51.75 137.15 53.05 137.75 C55.45 139 55.95 139.85 55.95 143.05 C55.95 144.65 55.80 144.90 54.50 145.15 C51.75 145.75 51.50 145.60 51.50 143.80 M37.75 143.20 C37.30 142.75 37 141.65 37 140.70 C37 138.95 37.10 138.90 40.50 138.20 C41.45 138 43.05 137.45 44.05 136.90 C45.10 136.40 46.05 136.15 46.15 136.40 C46.30 136.60 45.75 137.80 44.95 139 C44.15 140.20 43.25 141.80 43 142.60 C42.55 143.80 42.20 144 40.50 144 C39.30 144 38.15 143.65 37.75 143.20 M34.75 137.70 C33.75 137.30 34.30 132.55 35.45 131.30 C36.30 130.40 36.45 130.45 39.05 132.15 C40.50 133.10 42.35 134.05 43.10 134.25 C46.45 135.05 43.35 137.25 38.25 137.75 C36.70 137.85 35.15 137.85 34.75 137.70 M50.95 136.15 C48 134.80 47.95 134.80 49.15 134 C49.80 133.60 51.20 132.25 52.30 131.10 C54.45 128.85 56.35 128.35 57.50 129.75 C58.50 130.95 58.15 133.35 56.75 135.05 C56.05 135.85 55.50 136.75 55.50 137 C55.50 137.80 54.10 137.55 50.95 136.15 M46.40 133.20 C45.90 132.55 45.95 132.15 46.45 131.30 C46.85 130.70 47.25 129 47.45 127.55 C47.80 124.25 48.80 123.35 50.80 124.50 C51.55 124.90 52.60 125.85 53.15 126.65 L54.20 128.05 51.10 131 C49.40 132.65 47.75 134 47.50 134 C47.20 134 46.70 133.60 46.40 133.20 M40.85 132.50 C38.35 131.05 37.10 129.65 36.70 127.95 C36.30 126 36.90 125.40 40.30 124.30 C43.60 123.25 44.15 123.25 45.15 124.40 C46.45 125.85 46.70 128.60 45.80 131.20 C45.10 133.10 44.75 133.50 43.75 133.50 C43.05 133.50 41.75 133.05 40.85 132.50 M60.05 121.10 C59.80 120.90 59.20 119.85 58.75 118.75 C58.30 117.65 56.85 115.60 55.50 114.25 C54.15 112.85 52.90 111.15 52.75 110.50 C52.40 109.05 53.10 106.25 53.75 106.25 C53.95 106.25 55.05 108 56.10 110.15 C58.30 114.60 59.15 115.10 57.25 110.80 C56.55 109.25 56.20 108 56.45 108 C57.45 108 60.65 111.30 61.55 113.20 C62.40 115.15 62.75 119 62.25 120.70 C61.95 121.50 60.80 121.75 60.05 121.10 "/>   <path d="M62.10 184.15 C62.30 182.90 63.50 182.70 63.50 183.95 C63.50 184.55 63.15 185 62.75 185 C62.30 185 62.05 184.60 62.10 184.15 "/>   <path d="M122.55 175.75 C109.30 172.60 103.70 160.60 109.10 147.05 L110.25 144.25 114.20 144.30 C121.35 144.50 121.95 145.20 118.20 149.15 C114.80 152.80 113.30 156.05 113.30 160 C113.30 163.90 114.45 166.45 117.50 169.20 C120.50 171.90 123.55 173.10 128.05 173.35 C134.55 173.75 138.85 171.50 141.60 166.30 C142.55 164.55 142.70 163.45 142.70 159.50 C142.70 155.25 142.55 154.40 141.30 151.80 C139.30 147.70 135.05 143.40 127 137.25 C114.70 127.80 110.10 121.95 109.60 115 C109.25 110.05 110.40 107 113.95 103.45 C118 99.35 121.05 98.30 128.50 98.30 C133.25 98.30 134.70 98.50 137.10 99.40 C140.70 100.85 145.05 104.75 146.25 107.60 C147.50 110.70 147.35 115.90 145.90 120.25 L144.75 123.75 142.50 123.85 C139.25 124.10 136.25 123.35 136.05 122.35 C135.95 121.85 136.95 120.45 138.40 119 C140.25 117.15 141 115.95 141.45 114.10 C142.55 109.45 140.25 104.65 135.80 102.40 C133.30 101.10 127.65 100.60 124.70 101.40 C118.20 103.15 114.70 109.90 116.70 116.75 C117.45 119.30 118.10 120.20 121.65 123.70 C123.90 125.95 128.55 129.75 131.95 132.25 C140.95 138.70 146.55 144.20 148.85 148.90 C150.60 152.45 150.70 153 150.70 157.20 C150.70 161.05 150.50 162.15 149.35 164.60 C147.75 168.10 144.30 171.90 141.05 173.65 C136.05 176.35 128.55 177.20 122.55 175.75 "/>   <path d="M300 174.15 C300 173.65 300.90 170.65 302 167.45 C303.10 164.25 304.45 159.50 305 156.95 C305.95 152.65 309.50 117.55 309.45 112.75 C309.45 109.95 307.95 106.90 305 103.80 C303.60 102.35 302.50 100.85 302.50 100.55 C302.50 100.10 304.35 100 309.60 100.10 L316.70 100.25 318.50 107.50 C320.95 117.25 322.20 121.35 327.85 137.85 C330.45 145.65 332.80 151.85 332.95 151.60 C333.15 151.40 335.50 143.90 338.25 135 C340.95 126.05 344.45 114.55 346 109.50 L348.80 100.25 355.65 100.10 C361 100 362.50 100.10 362.50 100.60 C362.50 100.95 361.90 103.50 361.20 106.25 C359.10 114.40 359 122.20 360.90 138.75 C362.55 152.70 364.05 161.15 366.20 168.25 C366.90 170.50 367.50 172.95 367.50 173.65 L367.50 175 360.50 175 L353.50 175 353.50 173.80 C353.50 173.10 353.95 171.10 354.50 169.35 C355.65 165.50 356.95 157.30 356.95 153.65 C357 150.40 354.20 125.75 353.20 119.75 C352.20 114 349.95 104.35 349.65 104.60 C349.55 104.75 346.60 114.35 343.15 126.05 L336.80 147.25 336.75 154.75 C336.75 161.70 336.85 162.50 338.10 166.10 C339.80 170.95 339.85 172 338.35 171.95 C337.15 171.95 328.45 170.10 328.15 169.80 C328.05 169.70 327.85 166.70 327.75 163.15 C327.65 159.65 327.20 155.15 326.80 153.25 C324.65 143.55 313.20 112.10 312.15 113.10 C312.05 113.25 311.15 121.40 310.20 131.25 C308.15 151.55 308.10 159.30 309.95 168 C311.55 175.55 311.90 175 305.50 175 C300.65 175 300 174.85 300 174.15 "/>   <path d="M239.60 164.85 C239.70 162.30 239.70 162.25 238.25 162 C235.95 161.60 234.50 159 234.50 155.40 C234.50 153.80 234.80 151.65 235.15 150.60 C236.80 146.15 237.45 142.90 237.70 137.75 L237.95 132.30 233.25 122.60 C223.40 102.45 215.20 89.05 209 83.25 L207.45 81.75 209.20 85.60 C210.20 87.70 211 89.65 211 89.90 C211 90.15 211.70 90.80 212.65 91.35 C214.60 92.50 216 95.15 216 97.70 C216 100.10 215.10 100 212.50 97.20 C210.65 95.20 210.40 94.65 210.60 93.05 C210.75 91.75 210.35 90.15 209.15 87.35 C206.25 80.50 205.35 79.30 200.60 76.25 C198.25 74.70 196.25 73.55 196.15 73.65 C196 73.75 197.15 75.60 198.65 77.80 C200.15 79.95 203.30 85.20 205.70 89.50 C213.95 104.10 213.85 104 215.40 104 C216.85 104 218.05 104.70 220.35 106.85 C221.10 107.60 222.45 108.60 223.35 109.05 C224.20 109.50 225.30 110.50 225.75 111.20 C226.50 112.30 226.55 112.80 226.05 114.40 C225.55 116 225.60 116.40 226.50 117.60 C228.20 119.90 227.55 121.35 224.90 121.05 C224.15 120.95 223.45 121.15 223.25 121.45 C223.05 121.75 222.30 122 221.50 122 C220.75 122 219.80 122.30 219.50 122.75 C219.15 123.15 218.50 123.50 218.10 123.50 C217.70 123.50 216.80 123.95 216.10 124.50 C214.55 125.70 213.10 125.75 211.50 124.65 C210.80 124.15 209.55 123.85 208.55 123.90 C206.60 124.05 203.80 122.40 203 120.60 C202.30 119.05 202.35 116.20 203.05 114.80 C203.35 114.20 204.65 112.55 205.90 111.15 C212.70 103.50 212.70 103.50 207.95 94.85 C205.95 91.20 203.85 87.55 203.35 86.75 L202.40 85.25 202.65 87.95 C202.90 90.20 203.20 90.90 204.45 91.85 C206.45 93.40 206.45 95.45 204.50 99.90 C203.70 101.70 202.80 104.20 202.45 105.35 C202.10 106.50 201.55 107.50 201.25 107.50 C200.65 107.50 197.85 103.10 197 100.80 C195.25 96.20 197.40 91 201 91 C202.10 91 202.10 90.85 201.80 87.20 C201.55 84.05 201.20 83 199.65 80.60 C193.80 71.35 185.60 62.45 179.10 58.30 C169.95 52.40 159.75 48.70 149.45 47.65 C146.70 47.35 144.70 46.45 146.80 46.50 C148.95 46.50 157.10 48.05 161.25 49.25 C166.95 50.90 176.70 55.45 181.25 58.55 C187.05 62.55 195.40 69.20 201.75 74.85 C205.05 77.85 209.70 81.80 212.15 83.65 C215.75 86.50 216.75 87 217.80 86.75 C218.60 86.55 219.55 86.75 220.30 87.25 C221.65 88.10 224.50 92.25 224.50 93.30 C224.50 95.55 218.10 92.15 216.55 89.15 C215.70 87.45 213.25 85.05 211 83.75 C210.60 83.50 211.50 84.75 212.95 86.50 C215.70 89.80 220.45 96.75 222.75 100.90 C223.80 102.75 224.70 103.55 227.15 104.75 C228.85 105.60 232.60 107.60 235.45 109.15 C238.35 110.70 240.95 112 241.30 112 C241.95 112 242.50 113.10 242.50 114.50 C242.50 115.30 244.25 116.40 244.75 115.85 C244.85 115.75 244.40 114.90 243.70 113.95 C242.20 111.90 242.15 111.50 243.55 112.75 C244.80 113.95 246.05 116.25 245.60 116.65 C244.60 117.70 240.50 115.30 240.50 113.70 C240.50 113.05 237 110.50 236.15 110.50 C236 110.50 237.85 112.55 240.30 115.10 C243.40 118.35 245 119.70 245.75 119.60 C247.30 119.35 248.90 119.90 249.40 120.85 C249.65 121.35 250.05 122.80 250.25 124.10 C250.60 126.45 250.60 126.50 249.10 126.50 C248.15 126.50 246.90 125.85 245.50 124.65 C243.65 123.05 243.40 122.60 243.65 121.35 C243.95 120.05 243.50 119.40 238.90 114.70 C236.10 111.80 233.65 109.50 233.40 109.50 C232.90 109.50 235 113.15 235.65 113.40 C237.10 114 238 115.60 238 117.70 C238 118.90 237.75 120.05 237.55 120.20 C237.30 120.35 236.25 119.55 235.25 118.40 C233.60 116.60 233.40 116.15 233.65 114.55 C233.90 113.10 233.65 112.15 232.45 110.10 C231.20 107.95 230.40 107.20 227.90 105.95 C226.25 105.10 224.95 104.60 225.05 104.80 C229.75 114.80 238.70 131.85 239.45 132.20 C239.95 132.45 240.65 133.15 240.90 133.75 C241.20 134.40 242.30 135.15 243.55 135.60 C250.50 137.95 250.75 138 253.65 137.40 C257.15 136.70 259.80 137.55 263.20 140.55 C265.90 142.90 266.10 144.30 264.25 147.10 C263.55 148.10 263 149.05 263 149.20 C263 149.35 263.55 149.70 264.25 150 C266.10 150.70 265.75 151.85 263.25 153.05 C260.40 154.45 260.10 155.30 261.85 157.10 C263 158.30 263.10 158.60 262.45 159 C262.05 159.25 261.50 159.45 261.20 159.45 C260.90 159.45 259.60 160.30 258.30 161.30 C256.95 162.35 255.35 163.15 254.40 163.20 C253.50 163.30 252.70 163.60 252.60 163.90 C252.50 164.20 251.10 164.85 249.55 165.30 C248 165.75 246.35 166.40 245.85 166.80 C245.35 167.20 243.80 167.50 242.25 167.50 L239.50 167.50 239.60 164.85 M240.20 166.30 C240.05 165.90 240.25 164.75 240.70 163.70 C241.75 161.15 241.70 160.40 240 156.50 C239.15 154.60 238.50 152.20 238.50 151.15 L238.50 149.30 239.90 150.65 C240.65 151.35 241.85 152 242.50 152 C243.75 152 243.75 151.90 243.55 148.45 C243.45 146.50 243.55 144.70 243.85 144.40 C244.55 143.70 249.15 147.50 249.95 149.45 C250.40 150.45 250.50 152.35 250.35 154.95 C250.15 158.50 249.95 159.25 248 162.45 C245.80 166.25 245.65 166.35 242.50 166.75 C241.05 166.90 240.40 166.75 240.20 166.30 M248.55 163.45 C249.95 161.35 251.50 156.35 251.45 153.80 C251.45 151.30 250.40 148.30 249.15 146.85 L248.25 145.85 249.75 146.60 C251.40 147.50 254.05 150.15 254.95 151.85 C255.70 153.40 256.50 153.25 256.50 151.60 C256.50 150.80 255.85 149.45 255.05 148.45 C253.65 146.80 250.70 139.60 251.20 139.10 C251.80 138.50 253 139.65 255.15 142.85 C258 147.15 261.50 150.50 263.20 150.50 C265.35 150.50 265.10 151.40 262.55 152.70 C260.85 153.55 260 154.35 259.80 155.20 C259.35 156.95 257.55 158 254.25 158.35 C252.70 158.50 251.30 158.85 251.15 159.15 C250.95 159.45 251.25 159.50 251.90 159.35 C252.70 159.15 253 159.30 253 160 C253 162.55 251.55 164.15 248.75 164.75 L247.50 165 248.55 163.45 M259.50 160 L257.50 161.25C256.45 161.90 255.10 162.50 254.50 162.50 C253.80 162.50 253.50 162.15 253.50 161.50 C253.50 161 253.60 160.20 253.80 159.75 C253.95 159.35 254.55 159 255.10 159 C255.70 159 257.15 158.50 258.35 157.90 C260.35 156.95 260.65 156.90 261.30 157.60 C262 158.30 261.95 158.45 260.80 159.15 L259.50 160M236.70 160.55 C235.50 159.10 234.85 156.10 235.25 153.80 C235.55 152 237.20 148 237.65 148 C237.75 148 237.80 149.25 237.80 150.85 C237.80 152.95 238.10 154.35 238.95 156 C239.60 157.20 240.30 158.95 240.55 159.85 C240.95 161.45 240.95 161.50 239.25 161.50 C238.10 161.50 237.20 161.15 236.70 160.55 M259.55 147.35 C257.20 144.70 253 138.60 253.35 138.25 C253.50 138.10 254.70 138 256 138 C257.85 138 258.90 138.35 260.75 139.60 C262.10 140.50 263.60 141.80 264.10 142.55 C265.10 143.85 265.10 143.85 263.80 146.40 C263.05 147.85 262.15 149 261.75 149 C261.30 149 260.35 148.25 259.55 147.35 M247.05 125 C245.30 123.85 243.90 122 244.30 121.35 C244.45 121.10 245.15 121.50 245.75 122.30 C247.05 123.85 247.40 123.35 246.25 121.65 C245.60 120.70 245.60 120.55 246.25 120.30 C248.05 119.60 249.50 121.50 249.50 124.50 C249.50 126.20 249 126.30 247.05 125 M212.75 124.70 C211.70 124.30 211.75 124.20 213.85 122.25 C215.70 120.50 217.50 120.05 218.95 120.95 C219.55 121.30 219.55 121.55 219 122.20 C218.65 122.60 217.95 123 217.50 123 C217 123 216 123.45 215.30 124 C213.85 125.10 213.80 125.10 212.75 124.70 M207 122 C206.20 120.50 206.40 115.90 207.35 114.15 C208.50 112.15 213.65 106.50 214.40 106.50 C214.70 106.50 215.75 107.20 216.75 108.05 C218.40 109.50 218.50 109.80 218.20 111.70 C217.75 114.45 216.35 117.55 214.25 120.50 C212.55 122.90 212.40 123 210 123 C208 123 207.35 122.75 207 122 M204.55 121.35 C202.55 119 202.90 114.90 205.20 113 C206.05 112.30 206.10 112.30 205.70 113.50 C205.20 115.05 205.35 119.55 206 121.20 C206.60 122.80 205.85 122.90 204.55 121.35 M220.10 120.80 C219.60 120.40 218.55 119.95 217.70 119.75 L216.15 119.45 217.30 117.15 C217.95 115.85 218.60 113.75 218.80 112.40 C218.95 111.05 219.25 110 219.45 110 C219.60 110 220.15 110.65 220.65 111.45 C221.10 112.25 222.75 114.40 224.25 116.25 C227.05 119.70 227.30 120.80 225.10 120.25 C224.45 120.05 223.55 120.15 223.20 120.45 C221.90 121.40 221 121.50 220.10 120.80 M235.25 117.45 C233.85 115.75 233.70 115.20 234.50 114.75 C234.75 114.55 235 114.80 235 115.25 C235 115.65 235.20 115.90 235.50 115.70 C235.75 115.55 235.85 115.20 235.70 114.95 C235.55 114.70 235.75 114.60 236.15 114.75 C237.10 115.10 237.65 117.80 237 118.50 C236.65 118.80 236.05 118.45 235.25 117.45 M223 113.40 C222.15 112.30 221.60 111.15 221.75 110.95 C221.90 110.75 221.75 110.40 221.50 110.25 C221.20 110.05 221 109.60 221 109.20 C221 108.55 221.20 108.55 222.10 109 C224.20 110.10 225.50 111.60 225.50 113.05 C225.50 115.55 224.60 115.65 223 113.40 M199.70 104.50 C197.90 101.85 196.85 98.10 197.25 95.90 C197.60 93.70 199.50 91.50 200.95 91.50 C201.85 91.50 202 91.80 202.05 93.85 L202.10 96.25 202.60 94.10 C203.15 91.75 203.90 91.60 204.85 93.60 C205.55 95 205.20 96.40 202.25 103.50 L201 106.50 199.70 104.50 M212.75 96.40 C211.10 94.45 210.50 93 211.30 93 C211.45 93 211.90 93.35 212.30 93.85 C212.90 94.65 212.95 94.55 212.65 93.30 C212.20 91.20 213.35 92.05 214.50 94.65 C216.40 98.80 215.45 99.65 212.75 96.40 M219.75 91.50 C218.50 90.65 217.50 89.70 217.50 89.40 C217.50 88.90 217.60 88.90 218.10 89.40 C219.05 90.35 219.70 90.05 218.80 89.05 C217.70 87.85 217.75 87.50 218.95 87.50 C219.85 87.50 223.45 91.55 223.45 92.60 C223.50 93.40 221.90 92.90 219.75 91.50 M199.60 74.80 C199.10 74.40 197.90 73.65 196.85 73.10 C195.20 72.25 187.90 65 188.65 65 C189.05 65 201 74.95 201 75.25 C201 75.65 200.50 75.50 199.60 74.80 "/>   <path d="M406.50 107 C406.50 106.45 406.80 106 407.15 106 C408.05 106 408.45 106.45 408.20 107.25 C407.85 108.35 406.50 108.10 406.50 107 "/>   <path d="M400.75 99.05 C400.60 98.80 400.80 98.25 401.15 97.75 C401.70 96.95 401.85 96.95 402.40 97.65 C402.75 98.10 402.95 98.65 402.75 98.95 C402.40 99.60 401.05 99.65 400.75 99.05 "/>   <path d="M407.75 98.70 C407.60 98.30 407.85 97.80 408.25 97.65 C409.35 97.25 409.60 97.85 408.75 98.75 C408.05 99.40 407.95 99.40 407.75 98.70 "/>   <path d="M403.40 89.25 C403 88.65 403.05 88.40 403.70 88.15 C404.70 87.80 405.75 88.65 405.30 89.45 C404.85 90.20 404.05 90.10 403.40 89.25 "/>   <path d="M66.65 86.85 C66.90 85.90 68.50 85.75 68.50 86.70 C68.50 87.15 68.05 87.50 67.50 87.50 C66.90 87.50 66.55 87.20 66.65 86.85 "/>   <path d="M398.50 79.75 C398.50 79.30 398.80 79 399.25 79 C399.65 79 400 79.30 400 79.75 C400 80.15 399.65 80.50 399.25 80.50 C398.80 80.50 398.50 80.15 398.50 79.75 "/>   <path d="M372.50 78.25 C372.50 77.80 372.85 77.50 373.25 77.50 C373.70 77.50 373.95 77.70 373.75 78 C373.25 78.85 372.50 79 372.50 78.25 "/>   <path d="M64.70 74.65 C64.55 74.20 64.55 73.75 64.70 73.60 C65.10 73.20 66 74 66 74.75 C66 75.75 65.05 75.65 64.70 74.65 "/>   <path d="M382.15 72.95 C381.75 72.20 382.75 71.25 383.45 71.70 C383.75 71.90 384 72.35 384 72.75 C384 73.60 382.60 73.75 382.15 72.95 "/>   <path d="M304.15 72.15 C303.80 71.25 305 70.30 305.65 70.95 C306.20 71.50 305.70 73 305 73 C304.70 73 304.35 72.60 304.15 72.15 "/>   <path d="M376.65 72.45 C376.50 72.15 376.60 71.65 376.90 71.35 C377.50 70.75 379.15 71.80 378.70 72.55 C378.40 73.15 377.05 73.10 376.65 72.45 "/>   <path d="M309.50 71 C309.50 70.40 309.80 70 310.25 70 C310.65 70 311 70.40 311 71 C311 71.55 310.65 72 310.25 72 C309.80 72 309.50 71.55 309.50 71 "/>   <path d="M75.75 70.55 C75.30 69.80 76.95 68.75 77.55 69.35 C77.85 69.65 77.95 70.15 77.80 70.45 C77.40 71.10 76.05 71.15 75.75 70.55 "/>   <path d="M81.25 68.65 C80.70 67.95 81 67 81.75 67 C82.15 67 82.50 67.40 82.50 68 C82.50 68.95 81.75 69.35 81.25 68.65 "/>   <path d="M333.75 66.25 C333.65 65.90 333.70 65.45 333.85 65.30 C334.25 64.85 335.50 66 335.20 66.55 C334.85 67.20 334 67.05 333.75 66.25 "/>   <path d="M361.50 64.45 C361.50 63.70 361.75 63.45 362.35 63.55 C363.40 63.75 363.30 64.85 362.25 65.25 C361.70 65.40 361.50 65.15 361.50 64.45 "/>   <path d="M323 64.70 C322.10 64.15 322.45 63 323.50 63 C324.05 63 324.50 63.30 324.50 63.75 C324.50 64.60 323.70 65.10 323 64.70 "/>   <path d="M372.10 63.10 C372.20 62.60 372.55 62.25 373 62.25 C373.90 62.25 373.70 63.40 372.75 63.75 C372.20 63.90 372 63.70 372.10 63.10 "/>   <path d="M144.15 61.95 C144 61.65 144 61.30 144.15 61.15 C144.55 60.70 146 61.35 146 61.95 C146 62.65 144.55 62.60 144.15 61.95 "/>   <path d="M314.35 62 C313.85 61.60 313.90 61.40 314.45 61 C315.30 60.45 316 60.75 316 61.75 C316 62.60 315.25 62.70 314.35 62 "/>   <path d="M342.75 60.15 C342.15 59.35 342.55 58.40 343.35 58.55 C343.85 58.65 344.15 59 344.10 59.35 C343.95 60.10 343.05 60.60 342.75 60.15 "/>   <path d="M350.15 59.35 C350.25 59 350.60 58.75 351 58.75 C351.35 58.75 351.70 59 351.80 59.35 C351.90 59.70 351.55 60 351 60 C350.40 60 350.05 59.70 350.15 59.35 "/>   <path d="M156.15 58.95 C155.75 58.20 156.75 57.25 157.45 57.70 C157.75 57.90 158 58.35 158 58.75 C158 59.60 156.60 59.75 156.15 58.95 "/>   <path d="M92.20 58.45 C91.85 57.85 93.25 57.25 93.95 57.70 C94.25 57.90 94.40 58.25 94.25 58.50 C93.90 59.15 92.55 59.10 92.20 58.45 "/>   <path d="M103.90 58.25 C103.50 57.65 103.50 57.50 104.15 57.50 C105.05 57.50 105.70 58.35 105 58.75 C104.70 58.85 104.20 58.65 103.90 58.25 "/>   <path d="M83.65 57.85 C83.90 56.90 85.50 56.75 85.50 57.70 C85.50 58.15 85.05 58.50 84.50 58.50 C83.90 58.50 83.55 58.20 83.65 57.85 "/>   <path d="M146.65 54.95 C146.50 54.65 146.60 54.15 146.90 53.85 C147.50 53.25 149.20 53.75 148.75 54.50 C148.30 55.25 147 55.55 146.65 54.95 "/>   <path d="M358.65 54.85 C358.90 53.90 360.50 53.75 360.50 54.70 C360.50 55.15 360.05 55.50 359.50 55.50 C358.90 55.50 358.55 55.20 358.65 54.85 "/>   <path d="M130.25 50.75 C130 49.90 130.40 49.50 131.55 49.50 C132.65 49.50 132.80 50.75 131.75 51.15 C130.65 51.60 130.50 51.55 130.25 50.75 "/>   <path d="M111 49.50 C111 48.40 111.35 48.25 112.40 48.95 C113.25 49.45 112.80 50.50 111.75 50.50 C111.30 50.50 111 50.05 111 49.50 "/>   <path d="M118.25 48.15 C117.85 47.65 118.45 47 119.25 47 C119.65 47 120 47.30 120 47.75 C120 48.45 118.70 48.80 118.25 48.15 "/>   <path d="M140.50 47 C140.50 45.80 141.40 45.20 142.10 45.90 C142.50 46.30 142.45 46.65 142.05 47.20 C141.25 48.25 140.50 48.15 140.50 47 "/>   <path d="M125.70 41.95 C125.40 41.45 126.85 40.65 127.30 41.15 C127.70 41.50 127.10 42.50 126.50 42.50 C126.20 42.50 125.85 42.25 125.70 41.95 "/>  </g> </svg>